<svg xmlns="http://www.w3.org/2000/svg" xmlns:xlink="http://www.w3.org/1999/xlink" width="500" zoomAndPan="magnify" viewBox="0 0 375 374.999991" height="500" preserveAspectRatio="xMidYMid meet" version="1.0"><defs><g/></defs><rect x="-37.5" width="450" fill="#ffffff" y="-37.499999" height="449.999989" fill-opacity="1"/><rect x="-37.5" width="450" fill="#ffffff" y="-37.499999" height="449.999989" fill-opacity="1"/><g fill="#3d3b3a" fill-opacity="1"><g transform="translate(87.121875, 205.651393)"><g><path d="M 6 0 L 1.59375 0 L 1.59375 -28 L 6 -28 L 6 -16 L 11 -16 L 11 -28 L 15.484375 -28 L 15.484375 0 L 11 0 L 11 -12 L 6 -12 Z M 6 0 "/></g></g></g><g fill="#3d3b3a" fill-opacity="1"><g transform="translate(106.600182, 205.651393)"><g><path d="M 5.640625 -6.4375 C 5.640625 -5.425781 5.84375 -4.710938 6.25 -4.296875 C 6.664062 -3.890625 7.222656 -3.6875 7.921875 -3.6875 C 8.609375 -3.6875 9.160156 -3.890625 9.578125 -4.296875 C 9.992188 -4.710938 10.203125 -5.425781 10.203125 -6.4375 L 10.203125 -21.5625 C 10.203125 -22.570312 9.992188 -23.28125 9.578125 -23.6875 C 9.160156 -24.101562 8.609375 -24.3125 7.921875 -24.3125 C 7.222656 -24.3125 6.664062 -24.101562 6.25 -23.6875 C 5.84375 -23.28125 5.640625 -22.570312 5.640625 -21.5625 Z M 1.234375 -21.28125 C 1.234375 -23.550781 1.804688 -25.289062 2.953125 -26.5 C 4.109375 -27.707031 5.765625 -28.3125 7.921875 -28.3125 C 10.078125 -28.3125 11.726562 -27.707031 12.875 -26.5 C 14.019531 -25.289062 14.59375 -23.550781 14.59375 -21.28125 L 14.59375 -6.71875 C 14.59375 -4.445312 14.019531 -2.707031 12.875 -1.5 C 11.726562 -0.289062 10.078125 0.3125 7.921875 0.3125 C 5.765625 0.3125 4.109375 -0.289062 2.953125 -1.5 C 1.804688 -2.707031 1.234375 -4.445312 1.234375 -6.71875 Z M 1.234375 -21.28125 "/></g></g></g><g fill="#3d3b3a" fill-opacity="1"><g transform="translate(124.838612, 205.651393)"><g><path d="M 1.046875 -21.28125 C 1.046875 -23.550781 1.582031 -25.289062 2.65625 -26.5 C 3.738281 -27.707031 5.359375 -28.3125 7.515625 -28.3125 C 9.679688 -28.3125 11.300781 -27.707031 12.375 -26.5 C 13.457031 -25.289062 14 -23.550781 14 -21.28125 L 14 -20.40625 L 9.84375 -20.40625 L 9.84375 -21.5625 C 9.84375 -22.570312 9.648438 -23.28125 9.265625 -23.6875 C 8.878906 -24.101562 8.335938 -24.3125 7.640625 -24.3125 C 6.941406 -24.3125 6.398438 -24.101562 6.015625 -23.6875 C 5.628906 -23.28125 5.4375 -22.570312 5.4375 -21.5625 C 5.4375 -20.601562 5.648438 -19.753906 6.078125 -19.015625 C 6.503906 -18.285156 7.035156 -17.59375 7.671875 -16.9375 C 8.316406 -16.28125 9.003906 -15.625 9.734375 -14.96875 C 10.472656 -14.320312 11.160156 -13.613281 11.796875 -12.84375 C 12.441406 -12.070312 12.976562 -11.191406 13.40625 -10.203125 C 13.832031 -9.210938 14.046875 -8.050781 14.046875 -6.71875 C 14.046875 -4.445312 13.488281 -2.707031 12.375 -1.5 C 11.269531 -0.289062 9.640625 0.3125 7.484375 0.3125 C 5.316406 0.3125 3.679688 -0.289062 2.578125 -1.5 C 1.472656 -2.707031 0.921875 -4.445312 0.921875 -6.71875 L 0.921875 -8.4375 L 5.078125 -8.4375 L 5.078125 -6.4375 C 5.078125 -5.425781 5.28125 -4.71875 5.6875 -4.3125 C 6.101562 -3.914062 6.660156 -3.71875 7.359375 -3.71875 C 8.054688 -3.71875 8.609375 -3.914062 9.015625 -4.3125 C 9.429688 -4.71875 9.640625 -5.425781 9.640625 -6.4375 C 9.640625 -7.394531 9.425781 -8.238281 9 -8.96875 C 8.570312 -9.707031 8.035156 -10.40625 7.390625 -11.0625 C 6.753906 -11.71875 6.066406 -12.367188 5.328125 -13.015625 C 4.597656 -13.671875 3.910156 -14.382812 3.265625 -15.15625 C 2.628906 -15.925781 2.097656 -16.804688 1.671875 -17.796875 C 1.253906 -18.785156 1.046875 -19.945312 1.046875 -21.28125 Z M 1.046875 -21.28125 "/></g></g></g><g fill="#3d3b3a" fill-opacity="1"><g transform="translate(142.197129, 205.651393)"><g><path d="M 0.3125 -28 L 13.921875 -28 L 13.921875 -24 L 9.3125 -24 L 9.3125 0 L 4.921875 0 L 4.921875 -24 L 0.3125 -24 Z M 0.3125 -28 "/></g></g></g><g fill="#3d3b3a" fill-opacity="1"><g transform="translate(158.835722, 205.651393)"><g><path d="M 6 0 L 1.59375 0 L 1.59375 -28 L 6 -28 L 6 -16 L 11 -16 L 11 -28 L 15.484375 -28 L 15.484375 0 L 11 0 L 11 -12 L 6 -12 Z M 6 0 "/></g></g></g><g fill="#3d3b3a" fill-opacity="1"><g transform="translate(178.314029, 205.651393)"><g><path d="M 5.796875 -28 L 5.796875 -6.40625 C 5.796875 -5.382812 6.003906 -4.675781 6.421875 -4.28125 C 6.835938 -3.882812 7.390625 -3.6875 8.078125 -3.6875 C 8.773438 -3.6875 9.328125 -3.882812 9.734375 -4.28125 C 10.148438 -4.675781 10.359375 -5.382812 10.359375 -6.40625 L 10.359375 -28 L 14.515625 -28 L 14.515625 -6.6875 C 14.515625 -4.414062 13.960938 -2.671875 12.859375 -1.453125 C 11.753906 -0.242188 10.117188 0.359375 7.953125 0.359375 C 5.796875 0.359375 4.164062 -0.242188 3.0625 -1.453125 C 1.957031 -2.671875 1.40625 -4.414062 1.40625 -6.6875 L 1.40625 -28 Z M 5.796875 -28 "/></g></g></g><g fill="#3d3b3a" fill-opacity="1"><g transform="translate(196.632454, 205.651393)"><g><path d="M 8.234375 -28 C 10.535156 -28 12.195312 -27.460938 13.21875 -26.390625 C 14.25 -25.328125 14.765625 -23.71875 14.765625 -21.5625 L 14.765625 -20.5625 C 14.765625 -19.125 14.535156 -17.9375 14.078125 -17 C 13.628906 -16.0625 12.910156 -15.367188 11.921875 -14.921875 C 13.117188 -14.460938 13.960938 -13.71875 14.453125 -12.6875 C 14.953125 -11.664062 15.203125 -10.410156 15.203125 -8.921875 L 15.203125 -6.640625 C 15.203125 -4.484375 14.640625 -2.835938 13.515625 -1.703125 C 12.398438 -0.566406 10.734375 0 8.515625 0 L 1.59375 0 L 1.59375 -28 Z M 6 -12.59375 L 6 -4 L 8.515625 -4 C 9.265625 -4 9.832031 -4.195312 10.21875 -4.59375 C 10.601562 -5 10.796875 -5.722656 10.796875 -6.765625 L 10.796875 -9.203125 C 10.796875 -10.503906 10.578125 -11.394531 10.140625 -11.875 C 9.703125 -12.351562 8.972656 -12.59375 7.953125 -12.59375 Z M 6 -24 L 6 -16.59375 L 7.71875 -16.59375 C 8.539062 -16.59375 9.1875 -16.804688 9.65625 -17.234375 C 10.125 -17.660156 10.359375 -18.4375 10.359375 -19.5625 L 10.359375 -21.125 C 10.359375 -22.132812 10.175781 -22.863281 9.8125 -23.3125 C 9.457031 -23.769531 8.894531 -24 8.125 -24 Z M 6 -24 "/></g></g></g><path stroke-linecap="butt" transform="matrix(-0.00742815, -0.749963, 0.749963, -0.00742815, 66.823791, 216.608995)" fill="none" stroke-linejoin="miter" d="M 0.000768076 2.500701 L 73.58772 2.500355 " stroke="#3d3b3a" stroke-width="5" stroke-opacity="1" stroke-miterlimit="4"/><path stroke-linecap="butt" transform="matrix(-0.749993, -0.00329617, 0.00329617, -0.749993, 133.397223, 217.599799)" fill="none" stroke-linejoin="miter" d="M -0.00105906 2.497678 L 88.630019 2.498779 " stroke="#3d3b3a" stroke-width="5" stroke-opacity="1" stroke-miterlimit="4"/><path stroke-linecap="butt" transform="matrix(0.53033, -0.53033, 0.53033, 0.53033, 66.291219, 161.211697)" fill="none" stroke-linejoin="miter" d="M -0.00131629 2.501587 L 62.249864 2.497905 " stroke="#3d3b3a" stroke-width="5" stroke-opacity="1" stroke-miterlimit="4"/><path stroke-linecap="butt" transform="matrix(0.53033, 0.53033, -0.53033, 0.53033, 99.736565, 128.210778)" fill="none" stroke-linejoin="miter" d="M -0.0019145 2.499186 L 62.234535 2.502869 " stroke="#3d3b3a" stroke-width="5" stroke-opacity="1" stroke-miterlimit="4"/></svg>